<svg width="64" height="61" viewBox="0 0 11 8" fill="none" xmlns="http://www.w3.org/2000/svg">
<path d="M9.625 5.875H6.53125C6.48601 5.87474 6.44116 5.88341 6.39928 5.90052C6.3574 5.91762 6.31931 5.94283 6.28719 5.97469L6.04656 6.21875H4.95344L4.71281 5.97469C4.68069 5.94283 4.6426 5.91762 4.60072 5.90052C4.55884 5.88341 4.51399 5.87474 4.46875 5.875H3.4375C3.34633 5.875 3.2589 5.91122 3.19443 5.97568C3.12997 6.04015 3.09375 6.12758 3.09375 6.21875C3.09375 6.30992 3.12997 6.39735 3.19443 6.46182C3.2589 6.52628 3.34633 6.5625 3.4375 6.5625H4.32781L4.56844 6.80656C4.60056 6.83842 4.63865 6.86363 4.68053 6.88073C4.72241 6.89784 4.76726 6.90651 4.8125 6.90625H6.1875C6.23274 6.90651 6.27759 6.89784 6.31947 6.88073C6.36135 6.86363 6.39944 6.83842 6.43156 6.80656L6.67563 6.5625H9.625V6.975C9.625 7.05067 9.59494 7.12324 9.54143 7.17675C9.48793 7.23025 9.41536 7.26031 9.33969 7.26031H1.66031C1.62196 7.26034 1.584 7.25263 1.54869 7.23765C1.51339 7.22267 1.48146 7.20073 1.45483 7.17313C1.4282 7.14554 1.4074 7.11286 1.39369 7.07704C1.37997 7.04123 1.37361 7.00301 1.375 6.96469V6.5625H2.0625C2.15367 6.5625 2.2411 6.52628 2.30557 6.46182C2.37003 6.39735 2.40625 6.30992 2.40625 6.21875V1.55063C2.40625 1.51233 2.42146 1.47561 2.44854 1.44854C2.47561 1.42146 2.51233 1.40625 2.55063 1.40625H8.44937C8.48767 1.40625 8.52439 1.42146 8.55146 1.44854C8.57854 1.47561 8.59375 1.51233 8.59375 1.55063V4.84375C8.59375 4.93492 8.62997 5.02235 8.69443 5.08682C8.7589 5.15128 8.84633 5.1875 8.9375 5.1875C9.02867 5.1875 9.1161 5.15128 9.18057 5.08682C9.24503 5.02235 9.28125 4.93492 9.28125 4.84375V1.55063C9.28125 1.44138 9.25973 1.33321 9.21793 1.23228C9.17612 1.13135 9.11485 1.03965 9.0376 0.962401C8.96035 0.885154 8.86865 0.823878 8.76772 0.782073C8.66679 0.740267 8.55862 0.71875 8.44937 0.71875H2.55063C2.33 0.71875 2.11841 0.806394 1.9624 0.962401C1.80639 1.11841 1.71875 1.33 1.71875 1.55063V5.875H1.375C1.19266 5.875 1.0178 5.94743 0.888864 6.07636C0.759933 6.2053 0.6875 6.38016 0.6875 6.5625V6.975C0.690216 7.23121 0.793906 7.47601 0.976051 7.65623C1.15819 7.83644 1.40408 7.93751 1.66031 7.9375H9.33969C9.59769 7.9375 9.84513 7.83501 10.0276 7.65257C10.21 7.47013 10.3125 7.22269 10.3125 6.96469V6.5625C10.3125 6.38016 10.2401 6.2053 10.1111 6.07636C9.9822 5.94743 9.80734 5.875 9.625 5.875Z" fill="#FAFAFA"/>
<path d="M5.24906 5.49688C5.25636 5.50638 5.26572 5.51411 5.27644 5.51947C5.28716 5.52483 5.29895 5.52768 5.31094 5.52781H5.69594C5.70744 5.52768 5.71874 5.52481 5.72891 5.51943C5.73907 5.51405 5.7478 5.50631 5.75438 5.49688C5.77197 5.47693 5.78174 5.45128 5.78188 5.42469V5.15656C5.92594 5.12835 6.06349 5.07357 6.1875 4.995C6.30202 4.91904 6.39639 4.81641 6.4625 4.69594C6.53276 4.56874 6.56833 4.42529 6.56563 4.28C6.57002 4.13616 6.53935 3.9934 6.47625 3.86406C6.41353 3.7471 6.31631 3.65228 6.19781 3.5925C6.03658 3.51485 5.86344 3.46488 5.68563 3.44469C5.61146 3.43426 5.53799 3.41934 5.46563 3.4C5.42649 3.38973 5.39011 3.37095 5.35906 3.345C5.34221 3.32733 5.33242 3.30409 5.33156 3.27969C5.33167 3.26454 5.33512 3.2496 5.34165 3.23594C5.34819 3.22228 5.35765 3.21022 5.36938 3.20063C5.40458 3.17967 5.44539 3.17006 5.48625 3.17313C5.5244 3.17131 5.56235 3.17961 5.59625 3.19719C5.618 3.20886 5.63773 3.22394 5.65469 3.24188C5.67035 3.25978 5.68895 3.2749 5.70969 3.28656C5.73334 3.29283 5.75822 3.29283 5.78188 3.28656H6.41781C6.42659 3.28617 6.43517 3.2838 6.44291 3.27964C6.45064 3.27547 6.45734 3.26961 6.4625 3.2625C6.47058 3.25442 6.47689 3.24474 6.48103 3.23409C6.48517 3.22344 6.48706 3.21204 6.48656 3.20063C6.48069 3.09902 6.45127 3.00016 6.40063 2.91188C6.33956 2.80413 6.25916 2.70858 6.16344 2.63C6.05091 2.54241 5.92073 2.48025 5.78188 2.44781V2.18313C5.78174 2.15653 5.77197 2.13088 5.75438 2.11094C5.74648 2.10399 5.73715 2.09885 5.72706 2.09588C5.71696 2.09291 5.70634 2.09218 5.69594 2.09375H5.31094C5.29895 2.09388 5.28716 2.09673 5.27644 2.10209C5.26572 2.10745 5.25636 2.11518 5.24906 2.12469C5.23243 2.14497 5.22386 2.17067 5.225 2.19688V2.4375C5.0234 2.47633 4.84064 2.58163 4.70594 2.73656C4.57654 2.8928 4.50815 3.09064 4.51344 3.29344C4.50932 3.44174 4.54366 3.58859 4.61313 3.71969C4.68012 3.83664 4.7791 3.93204 4.89844 3.99469C5.03533 4.06508 5.18279 4.11268 5.335 4.13563C5.41833 4.14705 5.50096 4.16312 5.5825 4.18375C5.62819 4.19326 5.67147 4.21197 5.70969 4.23875C5.72115 4.24781 5.73047 4.25929 5.73701 4.27236C5.74354 4.28542 5.74712 4.29977 5.7475 4.31438C5.74604 4.33266 5.739 4.35006 5.72731 4.36421C5.71563 4.37835 5.69987 4.38856 5.68219 4.39344C5.62661 4.41607 5.56685 4.42662 5.50688 4.42438C5.47605 4.42812 5.44489 4.42812 5.41406 4.42438C5.38712 4.41895 5.36145 4.40846 5.33844 4.39344C5.31528 4.37936 5.29343 4.36326 5.27313 4.34531C5.2544 4.32696 5.23364 4.31082 5.21125 4.29719C5.18808 4.28467 5.16193 4.27872 5.13563 4.28H4.53063C4.52085 4.28031 4.51124 4.2826 4.50237 4.28674C4.49351 4.29087 4.48558 4.29677 4.47906 4.30406C4.4652 4.32166 4.4579 4.34354 4.45844 4.36594C4.46183 4.49005 4.49479 4.61155 4.55458 4.72036C4.61436 4.82917 4.69925 4.92215 4.80219 4.99156C4.93066 5.07675 5.07609 5.13304 5.22844 5.15656V5.42125C5.22545 5.44816 5.23283 5.4752 5.24906 5.49688Z" fill="#FAFAFA"/>
</svg>
